<mxfile host="app.diagrams.net" modified="2024-07-24T13:12:34.405Z" agent="Mozilla/5.0 (Windows NT 10.0; Win64; x64) AppleWebKit/537.36 (KHTML, like Gecko) Chrome/126.0.0.0 Safari/537.36" etag="tWLTCUBArwN5srixM_2W" version="24.7.1" type="device">
  <diagram name="Page-1" id="6133507b-19e7-1e82-6fc7-422aa6c4b21f">
    <mxGraphModel dx="1257" dy="620" grid="1" gridSize="10" guides="1" tooltips="1" connect="1" arrows="1" fold="1" page="1" pageScale="1" pageWidth="1100" pageHeight="850" background="none" math="0" shadow="0">
      <root>
        <mxCell id="0" />
        <mxCell id="1" parent="0" />
        <mxCell id="ptDooGZxJ313w6J8krjQ-8" value="Pet_Fact" style="swimlane;fontStyle=1;childLayout=stackLayout;horizontal=1;startSize=40;fillColor=none;horizontalStack=0;resizeParent=1;resizeParentMax=0;resizeLast=0;collapsible=1;marginBottom=0;html=1;" parent="1" vertex="1">
          <mxGeometry x="320" y="240" width="160" height="440" as="geometry" />
        </mxCell>
        <mxCell id="ptDooGZxJ313w6J8krjQ-9" value="PeturlD(PK)" style="text;strokeColor=none;fillColor=none;align=left;verticalAlign=top;spacingLeft=4;spacingRight=4;overflow=hidden;rotatable=0;points=[[0,0.5],[1,0.5]];portConstraint=eastwest;whiteSpace=wrap;html=1;fontStyle=1" parent="ptDooGZxJ313w6J8krjQ-8" vertex="1">
          <mxGeometry y="40" width="160" height="26" as="geometry" />
        </mxCell>
        <mxCell id="ptDooGZxJ313w6J8krjQ-10" value="TypeID(PK)" style="text;strokeColor=none;fillColor=none;align=left;verticalAlign=top;spacingLeft=4;spacingRight=4;overflow=hidden;rotatable=0;points=[[0,0.5],[1,0.5]];portConstraint=eastwest;whiteSpace=wrap;html=1;fontStyle=1" parent="ptDooGZxJ313w6J8krjQ-8" vertex="1">
          <mxGeometry y="66" width="160" height="26" as="geometry" />
        </mxCell>
        <mxCell id="ptDooGZxJ313w6J8krjQ-11" value="Breed1ID(PK)" style="text;strokeColor=none;fillColor=none;align=left;verticalAlign=top;spacingLeft=4;spacingRight=4;overflow=hidden;rotatable=0;points=[[0,0.5],[1,0.5]];portConstraint=eastwest;whiteSpace=wrap;html=1;fontStyle=1" parent="ptDooGZxJ313w6J8krjQ-8" vertex="1">
          <mxGeometry y="92" width="160" height="26" as="geometry" />
        </mxCell>
        <mxCell id="ptDooGZxJ313w6J8krjQ-48" value="Breed2ID(PK)" style="text;strokeColor=none;fillColor=none;align=left;verticalAlign=top;spacingLeft=4;spacingRight=4;overflow=hidden;rotatable=0;points=[[0,0.5],[1,0.5]];portConstraint=eastwest;whiteSpace=wrap;html=1;fontStyle=1" parent="ptDooGZxJ313w6J8krjQ-8" vertex="1">
          <mxGeometry y="118" width="160" height="26" as="geometry" />
        </mxCell>
        <mxCell id="ptDooGZxJ313w6J8krjQ-17" value="GenderID(PK)" style="text;strokeColor=none;fillColor=none;align=left;verticalAlign=top;spacingLeft=4;spacingRight=4;overflow=hidden;rotatable=0;points=[[0,0.5],[1,0.5]];portConstraint=eastwest;whiteSpace=wrap;html=1;fontStyle=1" parent="ptDooGZxJ313w6J8krjQ-8" vertex="1">
          <mxGeometry y="144" width="160" height="26" as="geometry" />
        </mxCell>
        <mxCell id="ptDooGZxJ313w6J8krjQ-16" value="Color1ID(PK)" style="text;strokeColor=none;fillColor=none;align=left;verticalAlign=top;spacingLeft=4;spacingRight=4;overflow=hidden;rotatable=0;points=[[0,0.5],[1,0.5]];portConstraint=eastwest;whiteSpace=wrap;html=1;fontStyle=1" parent="ptDooGZxJ313w6J8krjQ-8" vertex="1">
          <mxGeometry y="170" width="160" height="26" as="geometry" />
        </mxCell>
        <mxCell id="ptDooGZxJ313w6J8krjQ-15" value="Color2ID(PK)" style="text;strokeColor=none;fillColor=none;align=left;verticalAlign=top;spacingLeft=4;spacingRight=4;overflow=hidden;rotatable=0;points=[[0,0.5],[1,0.5]];portConstraint=eastwest;whiteSpace=wrap;html=1;fontStyle=1" parent="ptDooGZxJ313w6J8krjQ-8" vertex="1">
          <mxGeometry y="196" width="160" height="26" as="geometry" />
        </mxCell>
        <mxCell id="LLnamkqiljgLAKiLuRpF-2" value="Color3ID(PK)" style="text;strokeColor=none;fillColor=none;align=left;verticalAlign=top;spacingLeft=4;spacingRight=4;overflow=hidden;rotatable=0;points=[[0,0.5],[1,0.5]];portConstraint=eastwest;whiteSpace=wrap;html=1;fontStyle=1" vertex="1" parent="ptDooGZxJ313w6J8krjQ-8">
          <mxGeometry y="222" width="160" height="26" as="geometry" />
        </mxCell>
        <mxCell id="ptDooGZxJ313w6J8krjQ-14" value="MaturitySizeID(PK)" style="text;strokeColor=none;fillColor=none;align=left;verticalAlign=top;spacingLeft=4;spacingRight=4;overflow=hidden;rotatable=0;points=[[0,0.5],[1,0.5]];portConstraint=eastwest;whiteSpace=wrap;html=1;fontStyle=1" parent="ptDooGZxJ313w6J8krjQ-8" vertex="1">
          <mxGeometry y="248" width="160" height="26" as="geometry" />
        </mxCell>
        <mxCell id="ptDooGZxJ313w6J8krjQ-12" value="FurLengthID(PK)" style="text;strokeColor=none;fillColor=none;align=left;verticalAlign=top;spacingLeft=4;spacingRight=4;overflow=hidden;rotatable=0;points=[[0,0.5],[1,0.5]];portConstraint=eastwest;whiteSpace=wrap;html=1;fontStyle=1" parent="ptDooGZxJ313w6J8krjQ-8" vertex="1">
          <mxGeometry y="274" width="160" height="26" as="geometry" />
        </mxCell>
        <mxCell id="ptDooGZxJ313w6J8krjQ-19" value="HealthID(PK)" style="text;strokeColor=none;fillColor=none;align=left;verticalAlign=top;spacingLeft=4;spacingRight=4;overflow=hidden;rotatable=0;points=[[0,0.5],[1,0.5]];portConstraint=eastwest;whiteSpace=wrap;html=1;fontStyle=1" parent="ptDooGZxJ313w6J8krjQ-8" vertex="1">
          <mxGeometry y="300" width="160" height="26" as="geometry" />
        </mxCell>
        <mxCell id="ptDooGZxJ313w6J8krjQ-21" value="StateID(PK)" style="text;strokeColor=none;fillColor=none;align=left;verticalAlign=top;spacingLeft=4;spacingRight=4;overflow=hidden;rotatable=0;points=[[0,0.5],[1,0.5]];portConstraint=eastwest;whiteSpace=wrap;html=1;fontStyle=1" parent="ptDooGZxJ313w6J8krjQ-8" vertex="1">
          <mxGeometry y="326" width="160" height="26" as="geometry" />
        </mxCell>
        <mxCell id="ptDooGZxJ313w6J8krjQ-20" value="PetID int&lt;div&gt;Age int&lt;/div&gt;&lt;div&gt;Fee int&lt;/div&gt;&lt;div&gt;Quantity int&lt;/div&gt;&lt;div&gt;RescuerID int&lt;/div&gt;" style="text;align=left;verticalAlign=top;spacingLeft=4;spacingRight=4;overflow=hidden;rotatable=0;points=[[0,0.5],[1,0.5]];portConstraint=eastwest;whiteSpace=wrap;html=1;strokeColor=default;" parent="ptDooGZxJ313w6J8krjQ-8" vertex="1">
          <mxGeometry y="352" width="160" height="88" as="geometry" />
        </mxCell>
        <mxCell id="ptDooGZxJ313w6J8krjQ-32" value="Type_DIM" style="shape=table;startSize=40;container=1;collapsible=0;childLayout=tableLayout;fillColor=none;fontStyle=1" parent="1" vertex="1">
          <mxGeometry x="80" y="240" width="120" height="100" as="geometry" />
        </mxCell>
        <mxCell id="ptDooGZxJ313w6J8krjQ-33" value="" style="shape=tableRow;horizontal=0;startSize=0;swimlaneHead=0;swimlaneBody=0;strokeColor=inherit;top=0;left=0;bottom=0;right=0;collapsible=0;dropTarget=0;fillColor=none;points=[[0,0.5],[1,0.5]];portConstraint=eastwest;align=left;fontStyle=1" parent="ptDooGZxJ313w6J8krjQ-32" vertex="1">
          <mxGeometry y="40" width="120" height="31" as="geometry" />
        </mxCell>
        <mxCell id="ptDooGZxJ313w6J8krjQ-34" value="&lt;b&gt;TypeID(PK)&lt;/b&gt;" style="shape=partialRectangle;html=1;whiteSpace=wrap;connectable=0;strokeColor=inherit;overflow=hidden;fillColor=none;top=0;left=0;bottom=0;right=0;pointerEvents=1;align=left;" parent="ptDooGZxJ313w6J8krjQ-33" vertex="1">
          <mxGeometry width="120" height="31" as="geometry">
            <mxRectangle width="120" height="31" as="alternateBounds" />
          </mxGeometry>
        </mxCell>
        <mxCell id="ptDooGZxJ313w6J8krjQ-35" value="" style="shape=tableRow;horizontal=0;startSize=0;swimlaneHead=0;swimlaneBody=0;strokeColor=inherit;top=0;left=0;bottom=0;right=0;collapsible=0;dropTarget=0;fillColor=none;points=[[0,0.5],[1,0.5]];portConstraint=eastwest;" parent="ptDooGZxJ313w6J8krjQ-32" vertex="1">
          <mxGeometry y="71" width="120" height="29" as="geometry" />
        </mxCell>
        <mxCell id="ptDooGZxJ313w6J8krjQ-36" value="Type varchar(3)" style="shape=partialRectangle;html=1;whiteSpace=wrap;connectable=0;strokeColor=inherit;overflow=hidden;fillColor=none;top=0;left=0;bottom=0;right=0;pointerEvents=1;align=left;" parent="ptDooGZxJ313w6J8krjQ-35" vertex="1">
          <mxGeometry width="120" height="29" as="geometry">
            <mxRectangle width="120" height="29" as="alternateBounds" />
          </mxGeometry>
        </mxCell>
        <mxCell id="ptDooGZxJ313w6J8krjQ-39" value="" style="endArrow=none;html=1;rounded=0;exitX=1;exitY=0.5;exitDx=0;exitDy=0;entryX=0;entryY=0.5;entryDx=0;entryDy=0;" parent="1" source="ptDooGZxJ313w6J8krjQ-33" target="ptDooGZxJ313w6J8krjQ-10" edge="1">
          <mxGeometry width="50" height="50" relative="1" as="geometry">
            <mxPoint x="390" y="340" as="sourcePoint" />
            <mxPoint x="440" y="290" as="targetPoint" />
          </mxGeometry>
        </mxCell>
        <mxCell id="ptDooGZxJ313w6J8krjQ-40" value="Breed_DIM" style="shape=table;startSize=40;container=1;collapsible=0;childLayout=tableLayout;fillColor=none;fontStyle=1" parent="1" vertex="1">
          <mxGeometry x="80" y="400" width="120" height="100" as="geometry" />
        </mxCell>
        <mxCell id="ptDooGZxJ313w6J8krjQ-41" value="" style="shape=tableRow;horizontal=0;startSize=0;swimlaneHead=0;swimlaneBody=0;strokeColor=inherit;top=0;left=0;bottom=0;right=0;collapsible=0;dropTarget=0;fillColor=none;points=[[0,0.5],[1,0.5]];portConstraint=eastwest;align=left;fontStyle=1" parent="ptDooGZxJ313w6J8krjQ-40" vertex="1">
          <mxGeometry y="40" width="120" height="31" as="geometry" />
        </mxCell>
        <mxCell id="ptDooGZxJ313w6J8krjQ-42" value="&lt;b&gt;BreedID(PK)&lt;/b&gt;" style="shape=partialRectangle;html=1;whiteSpace=wrap;connectable=0;strokeColor=inherit;overflow=hidden;fillColor=none;top=0;left=0;bottom=0;right=0;pointerEvents=1;align=left;" parent="ptDooGZxJ313w6J8krjQ-41" vertex="1">
          <mxGeometry width="120" height="31" as="geometry">
            <mxRectangle width="120" height="31" as="alternateBounds" />
          </mxGeometry>
        </mxCell>
        <mxCell id="ptDooGZxJ313w6J8krjQ-43" value="" style="shape=tableRow;horizontal=0;startSize=0;swimlaneHead=0;swimlaneBody=0;strokeColor=inherit;top=0;left=0;bottom=0;right=0;collapsible=0;dropTarget=0;fillColor=none;points=[[0,0.5],[1,0.5]];portConstraint=eastwest;" parent="ptDooGZxJ313w6J8krjQ-40" vertex="1">
          <mxGeometry y="71" width="120" height="29" as="geometry" />
        </mxCell>
        <mxCell id="ptDooGZxJ313w6J8krjQ-44" value="Breed varchar(255)" style="shape=partialRectangle;html=1;whiteSpace=wrap;connectable=0;strokeColor=inherit;overflow=hidden;fillColor=none;top=0;left=0;bottom=0;right=0;pointerEvents=1;align=left;" parent="ptDooGZxJ313w6J8krjQ-43" vertex="1">
          <mxGeometry width="120" height="29" as="geometry">
            <mxRectangle width="120" height="29" as="alternateBounds" />
          </mxGeometry>
        </mxCell>
        <mxCell id="ptDooGZxJ313w6J8krjQ-45" value="" style="endArrow=none;html=1;rounded=0;exitX=1.004;exitY=0.126;exitDx=0;exitDy=0;exitPerimeter=0;" parent="1" source="ptDooGZxJ313w6J8krjQ-41" edge="1">
          <mxGeometry width="50" height="50" relative="1" as="geometry">
            <mxPoint x="390" y="440" as="sourcePoint" />
            <mxPoint x="320" y="350" as="targetPoint" />
          </mxGeometry>
        </mxCell>
        <mxCell id="ptDooGZxJ313w6J8krjQ-46" value="" style="endArrow=none;html=1;rounded=0;exitX=1.008;exitY=0.968;exitDx=0;exitDy=0;exitPerimeter=0;" parent="1" source="ptDooGZxJ313w6J8krjQ-41" edge="1">
          <mxGeometry width="50" height="50" relative="1" as="geometry">
            <mxPoint x="390" y="440" as="sourcePoint" />
            <mxPoint x="320" y="350" as="targetPoint" />
          </mxGeometry>
        </mxCell>
        <mxCell id="ptDooGZxJ313w6J8krjQ-49" value="Gender_DIM" style="shape=table;startSize=40;container=1;collapsible=0;childLayout=tableLayout;fillColor=none;fontStyle=1" parent="1" vertex="1">
          <mxGeometry x="80" y="560" width="120" height="90" as="geometry" />
        </mxCell>
        <mxCell id="ptDooGZxJ313w6J8krjQ-50" value="" style="shape=tableRow;horizontal=0;startSize=0;swimlaneHead=0;swimlaneBody=0;strokeColor=inherit;top=0;left=0;bottom=0;right=0;collapsible=0;dropTarget=0;fillColor=none;points=[[0,0.5],[1,0.5]];portConstraint=eastwest;align=left;fontStyle=1" parent="ptDooGZxJ313w6J8krjQ-49" vertex="1">
          <mxGeometry y="40" width="120" height="25" as="geometry" />
        </mxCell>
        <mxCell id="ptDooGZxJ313w6J8krjQ-51" value="&lt;b&gt;GenderID(PK)&lt;/b&gt;" style="shape=partialRectangle;html=1;whiteSpace=wrap;connectable=0;strokeColor=inherit;overflow=hidden;fillColor=none;top=0;left=0;bottom=0;right=0;pointerEvents=1;align=left;" parent="ptDooGZxJ313w6J8krjQ-50" vertex="1">
          <mxGeometry width="120" height="25" as="geometry">
            <mxRectangle width="120" height="25" as="alternateBounds" />
          </mxGeometry>
        </mxCell>
        <mxCell id="ptDooGZxJ313w6J8krjQ-52" value="" style="shape=tableRow;horizontal=0;startSize=0;swimlaneHead=0;swimlaneBody=0;strokeColor=inherit;top=0;left=0;bottom=0;right=0;collapsible=0;dropTarget=0;fillColor=none;points=[[0,0.5],[1,0.5]];portConstraint=eastwest;" parent="ptDooGZxJ313w6J8krjQ-49" vertex="1">
          <mxGeometry y="65" width="120" height="25" as="geometry" />
        </mxCell>
        <mxCell id="ptDooGZxJ313w6J8krjQ-53" value="Gender varchar(6)" style="shape=partialRectangle;html=1;whiteSpace=wrap;connectable=0;strokeColor=inherit;overflow=hidden;fillColor=none;top=0;left=0;bottom=0;right=0;pointerEvents=1;align=left;" parent="ptDooGZxJ313w6J8krjQ-52" vertex="1">
          <mxGeometry width="120" height="25" as="geometry">
            <mxRectangle width="120" height="25" as="alternateBounds" />
          </mxGeometry>
        </mxCell>
        <mxCell id="ptDooGZxJ313w6J8krjQ-54" value="" style="endArrow=none;html=1;rounded=0;exitX=1;exitY=0.5;exitDx=0;exitDy=0;entryX=0;entryY=0.5;entryDx=0;entryDy=0;" parent="1" source="ptDooGZxJ313w6J8krjQ-50" target="ptDooGZxJ313w6J8krjQ-17" edge="1">
          <mxGeometry width="50" height="50" relative="1" as="geometry">
            <mxPoint x="390" y="600" as="sourcePoint" />
            <mxPoint x="440" y="550" as="targetPoint" />
          </mxGeometry>
        </mxCell>
        <mxCell id="ptDooGZxJ313w6J8krjQ-55" value="Color_DIM" style="shape=table;startSize=40;container=1;collapsible=0;childLayout=tableLayout;fillColor=none;fontStyle=1" parent="1" vertex="1">
          <mxGeometry x="80" y="680" width="120" height="100" as="geometry" />
        </mxCell>
        <mxCell id="ptDooGZxJ313w6J8krjQ-56" value="" style="shape=tableRow;horizontal=0;startSize=0;swimlaneHead=0;swimlaneBody=0;strokeColor=inherit;top=0;left=0;bottom=0;right=0;collapsible=0;dropTarget=0;fillColor=none;points=[[0,0.5],[1,0.5]];portConstraint=eastwest;align=left;fontStyle=1" parent="ptDooGZxJ313w6J8krjQ-55" vertex="1">
          <mxGeometry y="40" width="120" height="31" as="geometry" />
        </mxCell>
        <mxCell id="ptDooGZxJ313w6J8krjQ-57" value="&lt;b&gt;ColorID(PK)&lt;/b&gt;" style="shape=partialRectangle;html=1;whiteSpace=wrap;connectable=0;strokeColor=inherit;overflow=hidden;fillColor=none;top=0;left=0;bottom=0;right=0;pointerEvents=1;align=left;" parent="ptDooGZxJ313w6J8krjQ-56" vertex="1">
          <mxGeometry width="120" height="31" as="geometry">
            <mxRectangle width="120" height="31" as="alternateBounds" />
          </mxGeometry>
        </mxCell>
        <mxCell id="ptDooGZxJ313w6J8krjQ-58" value="" style="shape=tableRow;horizontal=0;startSize=0;swimlaneHead=0;swimlaneBody=0;strokeColor=inherit;top=0;left=0;bottom=0;right=0;collapsible=0;dropTarget=0;fillColor=none;points=[[0,0.5],[1,0.5]];portConstraint=eastwest;" parent="ptDooGZxJ313w6J8krjQ-55" vertex="1">
          <mxGeometry y="71" width="120" height="29" as="geometry" />
        </mxCell>
        <mxCell id="ptDooGZxJ313w6J8krjQ-59" value="Color varchar(255)" style="shape=partialRectangle;html=1;whiteSpace=wrap;connectable=0;strokeColor=inherit;overflow=hidden;fillColor=none;top=0;left=0;bottom=0;right=0;pointerEvents=1;align=left;" parent="ptDooGZxJ313w6J8krjQ-58" vertex="1">
          <mxGeometry width="120" height="29" as="geometry">
            <mxRectangle width="120" height="29" as="alternateBounds" />
          </mxGeometry>
        </mxCell>
        <mxCell id="ptDooGZxJ313w6J8krjQ-63" value="MaturitySize_DIM" style="shape=table;startSize=40;container=1;collapsible=0;childLayout=tableLayout;fillColor=none;fontStyle=1" parent="1" vertex="1">
          <mxGeometry x="600" y="240" width="160" height="100" as="geometry" />
        </mxCell>
        <mxCell id="ptDooGZxJ313w6J8krjQ-64" value="" style="shape=tableRow;horizontal=0;startSize=0;swimlaneHead=0;swimlaneBody=0;strokeColor=inherit;top=0;left=0;bottom=0;right=0;collapsible=0;dropTarget=0;fillColor=none;points=[[0,0.5],[1,0.5]];portConstraint=eastwest;align=left;fontStyle=1" parent="ptDooGZxJ313w6J8krjQ-63" vertex="1">
          <mxGeometry y="40" width="160" height="31" as="geometry" />
        </mxCell>
        <mxCell id="ptDooGZxJ313w6J8krjQ-65" value="&lt;b&gt;MaturitySizeID(PK)&lt;/b&gt;" style="shape=partialRectangle;html=1;whiteSpace=wrap;connectable=0;strokeColor=inherit;overflow=hidden;fillColor=none;top=0;left=0;bottom=0;right=0;pointerEvents=1;align=left;" parent="ptDooGZxJ313w6J8krjQ-64" vertex="1">
          <mxGeometry width="160" height="31" as="geometry">
            <mxRectangle width="160" height="31" as="alternateBounds" />
          </mxGeometry>
        </mxCell>
        <mxCell id="ptDooGZxJ313w6J8krjQ-66" value="" style="shape=tableRow;horizontal=0;startSize=0;swimlaneHead=0;swimlaneBody=0;strokeColor=inherit;top=0;left=0;bottom=0;right=0;collapsible=0;dropTarget=0;fillColor=none;points=[[0,0.5],[1,0.5]];portConstraint=eastwest;" parent="ptDooGZxJ313w6J8krjQ-63" vertex="1">
          <mxGeometry y="71" width="160" height="29" as="geometry" />
        </mxCell>
        <mxCell id="ptDooGZxJ313w6J8krjQ-67" value="MaturitySize varchar(13)" style="shape=partialRectangle;html=1;whiteSpace=wrap;connectable=0;strokeColor=inherit;overflow=hidden;fillColor=none;top=0;left=0;bottom=0;right=0;pointerEvents=1;align=left;" parent="ptDooGZxJ313w6J8krjQ-66" vertex="1">
          <mxGeometry width="160" height="29" as="geometry">
            <mxRectangle width="160" height="29" as="alternateBounds" />
          </mxGeometry>
        </mxCell>
        <mxCell id="ptDooGZxJ313w6J8krjQ-68" value="" style="endArrow=none;html=1;rounded=0;entryX=0;entryY=0.5;entryDx=0;entryDy=0;exitX=1;exitY=0.5;exitDx=0;exitDy=0;" parent="1" source="ptDooGZxJ313w6J8krjQ-10" target="ptDooGZxJ313w6J8krjQ-64" edge="1">
          <mxGeometry width="50" height="50" relative="1" as="geometry">
            <mxPoint x="390" y="410" as="sourcePoint" />
            <mxPoint x="440" y="360" as="targetPoint" />
          </mxGeometry>
        </mxCell>
        <mxCell id="ptDooGZxJ313w6J8krjQ-69" value="FurLength_DIM" style="shape=table;startSize=40;container=1;collapsible=0;childLayout=tableLayout;fillColor=none;fontStyle=1" parent="1" vertex="1">
          <mxGeometry x="600" y="400" width="160" height="100" as="geometry" />
        </mxCell>
        <mxCell id="ptDooGZxJ313w6J8krjQ-70" value="" style="shape=tableRow;horizontal=0;startSize=0;swimlaneHead=0;swimlaneBody=0;strokeColor=inherit;top=0;left=0;bottom=0;right=0;collapsible=0;dropTarget=0;fillColor=none;points=[[0,0.5],[1,0.5]];portConstraint=eastwest;align=left;fontStyle=1" parent="ptDooGZxJ313w6J8krjQ-69" vertex="1">
          <mxGeometry y="40" width="160" height="31" as="geometry" />
        </mxCell>
        <mxCell id="ptDooGZxJ313w6J8krjQ-71" value="&lt;b&gt;FurLengthID(PK)&lt;/b&gt;" style="shape=partialRectangle;html=1;whiteSpace=wrap;connectable=0;strokeColor=inherit;overflow=hidden;fillColor=none;top=0;left=0;bottom=0;right=0;pointerEvents=1;align=left;" parent="ptDooGZxJ313w6J8krjQ-70" vertex="1">
          <mxGeometry width="160" height="31" as="geometry">
            <mxRectangle width="160" height="31" as="alternateBounds" />
          </mxGeometry>
        </mxCell>
        <mxCell id="ptDooGZxJ313w6J8krjQ-72" value="" style="shape=tableRow;horizontal=0;startSize=0;swimlaneHead=0;swimlaneBody=0;strokeColor=inherit;top=0;left=0;bottom=0;right=0;collapsible=0;dropTarget=0;fillColor=none;points=[[0,0.5],[1,0.5]];portConstraint=eastwest;" parent="ptDooGZxJ313w6J8krjQ-69" vertex="1">
          <mxGeometry y="71" width="160" height="29" as="geometry" />
        </mxCell>
        <mxCell id="ptDooGZxJ313w6J8krjQ-73" value="FurLength varchar(13)" style="shape=partialRectangle;html=1;whiteSpace=wrap;connectable=0;strokeColor=inherit;overflow=hidden;fillColor=none;top=0;left=0;bottom=0;right=0;pointerEvents=1;align=left;" parent="ptDooGZxJ313w6J8krjQ-72" vertex="1">
          <mxGeometry width="160" height="29" as="geometry">
            <mxRectangle width="160" height="29" as="alternateBounds" />
          </mxGeometry>
        </mxCell>
        <mxCell id="ptDooGZxJ313w6J8krjQ-74" value="" style="endArrow=none;html=1;rounded=0;entryX=0;entryY=0.5;entryDx=0;entryDy=0;exitX=0.994;exitY=1.038;exitDx=0;exitDy=0;exitPerimeter=0;" parent="1" source="ptDooGZxJ313w6J8krjQ-16" target="ptDooGZxJ313w6J8krjQ-70" edge="1">
          <mxGeometry width="50" height="50" relative="1" as="geometry">
            <mxPoint x="390" y="610" as="sourcePoint" />
            <mxPoint x="440" y="560" as="targetPoint" />
          </mxGeometry>
        </mxCell>
        <mxCell id="ptDooGZxJ313w6J8krjQ-75" value="" style="endArrow=none;html=1;rounded=0;exitX=1;exitY=0.25;exitDx=0;exitDy=0;" parent="1" source="ptDooGZxJ313w6J8krjQ-55" edge="1">
          <mxGeometry width="50" height="50" relative="1" as="geometry">
            <mxPoint x="390" y="610" as="sourcePoint" />
            <mxPoint x="320" y="480" as="targetPoint" />
          </mxGeometry>
        </mxCell>
        <mxCell id="ptDooGZxJ313w6J8krjQ-76" value="" style="endArrow=none;html=1;rounded=0;exitX=1;exitY=0.5;exitDx=0;exitDy=0;" parent="1" source="ptDooGZxJ313w6J8krjQ-56" edge="1">
          <mxGeometry width="50" height="50" relative="1" as="geometry">
            <mxPoint x="390" y="610" as="sourcePoint" />
            <mxPoint x="320" y="480" as="targetPoint" />
          </mxGeometry>
        </mxCell>
        <mxCell id="ptDooGZxJ313w6J8krjQ-78" value="Health_DIM" style="shape=table;startSize=40;container=1;collapsible=0;childLayout=tableLayout;fillColor=none;fontStyle=1" parent="1" vertex="1">
          <mxGeometry x="600" y="540" width="160" height="150" as="geometry" />
        </mxCell>
        <mxCell id="ptDooGZxJ313w6J8krjQ-79" value="" style="shape=tableRow;horizontal=0;startSize=0;swimlaneHead=0;swimlaneBody=0;strokeColor=inherit;top=0;left=0;bottom=0;right=0;collapsible=0;dropTarget=0;fillColor=none;points=[[0,0.5],[1,0.5]];portConstraint=eastwest;align=left;fontStyle=1" parent="ptDooGZxJ313w6J8krjQ-78" vertex="1">
          <mxGeometry y="40" width="160" height="34" as="geometry" />
        </mxCell>
        <mxCell id="ptDooGZxJ313w6J8krjQ-80" value="&lt;b&gt;HealthID(PK)&lt;/b&gt;" style="shape=partialRectangle;html=1;whiteSpace=wrap;connectable=0;strokeColor=inherit;overflow=hidden;fillColor=none;top=0;left=0;bottom=0;right=0;pointerEvents=1;align=left;" parent="ptDooGZxJ313w6J8krjQ-79" vertex="1">
          <mxGeometry width="160" height="34" as="geometry">
            <mxRectangle width="160" height="34" as="alternateBounds" />
          </mxGeometry>
        </mxCell>
        <mxCell id="ptDooGZxJ313w6J8krjQ-81" value="" style="shape=tableRow;horizontal=0;startSize=0;swimlaneHead=0;swimlaneBody=0;strokeColor=inherit;top=0;left=0;bottom=0;right=0;collapsible=0;dropTarget=0;fillColor=none;points=[[0,0.5],[1,0.5]];portConstraint=eastwest;" parent="ptDooGZxJ313w6J8krjQ-78" vertex="1">
          <mxGeometry y="74" width="160" height="76" as="geometry" />
        </mxCell>
        <mxCell id="ptDooGZxJ313w6J8krjQ-82" value="Vaccinated varchar(8)&lt;div&gt;Dewormed varchar(8)&lt;br&gt;&lt;/div&gt;&lt;div&gt;Sterilized varchar(8)&lt;br&gt;&lt;/div&gt;&lt;div&gt;Health varchar(14)&lt;br&gt;&lt;/div&gt;&lt;div&gt;&lt;br&gt;&lt;/div&gt;" style="shape=partialRectangle;html=1;whiteSpace=wrap;connectable=0;strokeColor=inherit;overflow=hidden;fillColor=none;top=0;left=0;bottom=0;right=0;pointerEvents=1;align=left;" parent="ptDooGZxJ313w6J8krjQ-81" vertex="1">
          <mxGeometry width="160" height="76" as="geometry">
            <mxRectangle width="160" height="76" as="alternateBounds" />
          </mxGeometry>
        </mxCell>
        <mxCell id="ptDooGZxJ313w6J8krjQ-83" value="" style="endArrow=none;html=1;rounded=0;exitX=1;exitY=0.5;exitDx=0;exitDy=0;" parent="1" source="ptDooGZxJ313w6J8krjQ-19" target="ptDooGZxJ313w6J8krjQ-79" edge="1">
          <mxGeometry width="50" height="50" relative="1" as="geometry">
            <mxPoint x="390" y="610" as="sourcePoint" />
            <mxPoint x="440" y="560" as="targetPoint" />
          </mxGeometry>
        </mxCell>
        <mxCell id="ptDooGZxJ313w6J8krjQ-84" value="State_DIM" style="shape=table;startSize=40;container=1;collapsible=0;childLayout=tableLayout;fillColor=none;fontStyle=1" parent="1" vertex="1">
          <mxGeometry x="600" y="730" width="160" height="100" as="geometry" />
        </mxCell>
        <mxCell id="ptDooGZxJ313w6J8krjQ-85" value="" style="shape=tableRow;horizontal=0;startSize=0;swimlaneHead=0;swimlaneBody=0;strokeColor=inherit;top=0;left=0;bottom=0;right=0;collapsible=0;dropTarget=0;fillColor=none;points=[[0,0.5],[1,0.5]];portConstraint=eastwest;align=left;fontStyle=1" parent="ptDooGZxJ313w6J8krjQ-84" vertex="1">
          <mxGeometry y="40" width="160" height="31" as="geometry" />
        </mxCell>
        <mxCell id="ptDooGZxJ313w6J8krjQ-86" value="&lt;b&gt;StateID(PK)&lt;/b&gt;" style="shape=partialRectangle;html=1;whiteSpace=wrap;connectable=0;strokeColor=inherit;overflow=hidden;fillColor=none;top=0;left=0;bottom=0;right=0;pointerEvents=1;align=left;" parent="ptDooGZxJ313w6J8krjQ-85" vertex="1">
          <mxGeometry width="160" height="31" as="geometry">
            <mxRectangle width="160" height="31" as="alternateBounds" />
          </mxGeometry>
        </mxCell>
        <mxCell id="ptDooGZxJ313w6J8krjQ-87" value="" style="shape=tableRow;horizontal=0;startSize=0;swimlaneHead=0;swimlaneBody=0;strokeColor=inherit;top=0;left=0;bottom=0;right=0;collapsible=0;dropTarget=0;fillColor=none;points=[[0,0.5],[1,0.5]];portConstraint=eastwest;" parent="ptDooGZxJ313w6J8krjQ-84" vertex="1">
          <mxGeometry y="71" width="160" height="29" as="geometry" />
        </mxCell>
        <mxCell id="ptDooGZxJ313w6J8krjQ-88" value="State varchar(255)" style="shape=partialRectangle;html=1;whiteSpace=wrap;connectable=0;strokeColor=inherit;overflow=hidden;fillColor=none;top=0;left=0;bottom=0;right=0;pointerEvents=1;align=left;" parent="ptDooGZxJ313w6J8krjQ-87" vertex="1">
          <mxGeometry width="160" height="29" as="geometry">
            <mxRectangle width="160" height="29" as="alternateBounds" />
          </mxGeometry>
        </mxCell>
        <mxCell id="ptDooGZxJ313w6J8krjQ-89" value="" style="endArrow=none;html=1;rounded=0;entryX=0;entryY=0.5;entryDx=0;entryDy=0;exitX=1;exitY=0.5;exitDx=0;exitDy=0;" parent="1" source="ptDooGZxJ313w6J8krjQ-21" target="ptDooGZxJ313w6J8krjQ-85" edge="1">
          <mxGeometry width="50" height="50" relative="1" as="geometry">
            <mxPoint x="390" y="710" as="sourcePoint" />
            <mxPoint x="440" y="660" as="targetPoint" />
          </mxGeometry>
        </mxCell>
        <mxCell id="LLnamkqiljgLAKiLuRpF-1" value="" style="endArrow=none;html=1;rounded=0;exitX=1;exitY=0.31;exitDx=0;exitDy=0;exitPerimeter=0;" edge="1" parent="1" source="ptDooGZxJ313w6J8krjQ-58">
          <mxGeometry width="50" height="50" relative="1" as="geometry">
            <mxPoint x="430" y="650" as="sourcePoint" />
            <mxPoint x="320" y="480" as="targetPoint" />
          </mxGeometry>
        </mxCell>
      </root>
    </mxGraphModel>
  </diagram>
</mxfile>
